<svg width="12" height="8" viewBox="0 0 12 8" fill="none" xmlns="http://www.w3.org/2000/svg">
<path d="M5.04535 0.34098L0.249351 5.82198C-0.316649 6.46898 0.143351 7.48098 1.00235 7.48098H10.5944C10.7866 7.48114 10.9748 7.42589 11.1365 7.32184C11.2981 7.21779 11.4263 7.06934 11.5058 6.89429C11.5853 6.71923 11.6126 6.52498 11.5845 6.3348C11.5564 6.14462 11.474 5.96657 11.3474 5.82198L6.55135 0.34198C6.45749 0.23457 6.34174 0.148484 6.21186 0.0895C6.08198 0.0305162 5.94099 0 5.79835 0C5.65571 0 5.51472 0.0305162 5.38484 0.0895C5.25497 0.148484 5.13921 0.23357 5.04535 0.34098Z" fill="white"/>
</svg>
